<svg version="1.1" id="Layer_1" xmlns="http://www.w3.org/2000/svg" xmlns:xlink="http://www.w3.org/1999/xlink" x="0px" y="0px"
     width="100%" viewBox="0 0 472 329" enable-background="new 0 0 472 329" xml:space="preserve">
    <path fill="#FF2A0E" opacity="1.000000" stroke="none"
          d="
M50.059937,163.892105
	C58.393806,154.072968 66.787239,144.303619 75.045898,134.421631
	C84.589394,123.002266 94.007088,111.477829 103.496223,100.012932
	C105.484566,97.610588 107.587181,95.302475 109.563332,92.890465
	C111.899025,90.039612 114.604607,88.753510 118.525261,88.890305
	C128.137405,89.225670 137.769135,88.999893 148.471069,88.999893
	C125.399002,115.589691 102.909103,141.508560 79.922256,168.000153
	C88.130379,168.000153 95.719841,167.866440 103.297218,168.109512
	C104.870537,168.159988 106.967186,169.206161 107.862396,170.472351
	C120.020966,187.669342 131.976669,205.009537 144.055893,222.262970
	C149.630295,230.225204 155.364395,238.075653 161.315887,246.381241
	C160.156403,246.630920 159.301651,246.971527 158.445404,246.975266
	C149.446213,247.014496 140.442673,247.142227 131.450897,246.881241
	C129.629837,246.828415 127.160805,245.733658 126.162392,244.302002
	C115.609596,229.169937 105.317307,213.856522 94.904739,198.626221
	C88.957413,189.927139 83.029640,181.209625 76.817825,172.701370
	C75.776489,171.275055 73.359856,170.200729 71.527824,170.120132
	C64.708359,169.820129 57.867672,170.002335 50.247910,170.281403
	C49.307293,172.361038 49.022327,174.162628 49.020039,175.964569
	C48.990040,199.584808 48.999969,223.205124 48.999882,246.825409
	C39.866352,246.825409 30.732819,246.825409 21.300251,246.825409
	C21.300251,168.024384 21.300251,89.320702 21.300251,10.017944
	C30.170214,10.017944 39.097904,10.017944 48.501366,10.543888
	C48.984913,60.553753 48.983643,110.037682 49.044888,159.521530
	C49.046692,160.978806 49.706776,162.435272 50.059937,163.892105
z"/>
    <path fill="#FF2A0E" opacity="1.000000" stroke="none"
          d="
M241.969696,310.921448
	C240.633484,315.321289 239.489288,319.377808 237.922379,323.263947
	C237.455856,324.420990 235.822891,325.849091 234.691345,325.878418
	C226.223785,326.097961 217.747971,325.997803 208.325638,325.997803
	C216.993195,299.510010 225.455856,273.648346 234.175934,247.000000
	C227.460999,247.000000 221.074600,246.729095 214.724945,247.095383
	C210.502808,247.338928 208.588455,246.337662 207.227203,241.865326
	C201.072037,221.642807 194.333817,201.597977 187.825714,181.482651
	C180.820343,159.830399 173.842377,138.169296 166.842178,116.515381
	C163.924789,107.490929 160.980835,98.475060 157.901764,89.002457
	C167.382660,89.002457 176.517548,88.864517 185.637329,89.172882
	C186.808609,89.212486 188.470520,91.389557 188.945084,92.881783
	C195.742310,114.254822 202.310104,135.700684 209.063248,157.087952
	C216.882370,181.851120 224.845352,206.568817 232.701172,231.320465
	C233.675323,234.389755 234.375412,237.546036 236.136536,240.870880
	C251.924072,190.387939 267.711609,139.904984 283.573700,89.183624
	C293.111359,89.183624 302.896423,89.183624 313.557373,89.183624
	C310.159515,99.657310 306.892456,109.733284 303.621948,119.808151
	C292.861298,152.956207 282.056732,186.090088 271.353424,219.256668
	C264.461975,240.611420 257.742401,262.021576 250.897568,283.391449
	C247.995331,292.452362 244.969528,301.473633 241.969696,310.921448
z"/>
    <path fill="#FF2A0E" opacity="1.000000" stroke="none"
          d="
M342.012177,88.999924
	C347.479584,88.999924 352.450989,88.999924 357.842834,88.999924
	C357.842834,101.019882 357.842834,112.761383 357.842834,124.502884
	C360.212646,114.840561 363.592163,105.907562 370.733704,98.733864
	C378.268097,91.165596 387.269348,87.302437 397.893616,85.835358
	C411.164948,84.002762 423.442627,86.331924 435.253143,92.063080
	C448.589142,98.534508 456.357574,109.805756 459.775238,123.670166
	C461.944122,132.468643 462.760193,141.780045 462.862030,150.876205
	C463.217987,182.677994 462.999878,214.486206 462.999878,246.645905
	C453.451569,246.645905 444.055054,246.645905 433.991058,246.645905
	C433.991058,245.045532 433.990936,243.288727 433.991089,241.531921
	C433.993622,210.216049 433.783203,178.898239 434.069305,147.584961
	C434.280548,124.465714 420.399750,109.858467 397.142822,111.085457
	C391.016541,111.408669 384.755249,112.073128 378.886230,113.742233
	C368.164062,116.791542 362.460907,125.030510 360.140808,135.433502
	C358.798279,141.453156 358.131348,147.740753 358.091278,153.913803
	C357.891296,184.714935 357.999878,215.518051 357.999878,246.660263
	C348.755768,246.660263 339.693817,246.660263 330.314209,246.660263
	C330.314209,194.380798 330.314209,142.004700 330.314209,88.999924
	C333.986328,88.999924 337.751251,88.999924 342.012177,88.999924
z"/>
    <path fill="#E81901" opacity="1.000000" stroke="none"
          d="
M50.033051,163.430847
	C49.706776,162.435272 49.046692,160.978806 49.044888,159.521530
	C48.983643,110.037682 48.984913,60.553753 48.962357,10.611423
	C49.298321,11.747668 49.953770,13.341977 49.955585,14.937031
	C50.011784,64.281174 50.004047,113.625374 50.033051,163.430847
z"/>
    <path fill="#E81901" opacity="1.000000" stroke="none"
          d="
M49.411987,246.693817
	C48.999969,223.205124 48.990040,199.584808 49.020039,175.964569
	C49.022327,174.162628 49.307293,172.361038 49.786465,170.295044
	C50.074757,193.723419 50.041111,217.416046 49.992908,241.108643
	C49.989208,242.926605 49.882774,244.744354 49.411987,246.693817
z"/>
</svg>