<svg version="1.1" id="Layer_1" xmlns="http://www.w3.org/2000/svg" xmlns:xlink="http://www.w3.org/1999/xlink" x="0px" y="0px"
     width="100%" viewBox="0 0 150 248" enable-background="new 0 0 150 248" xml:space="preserve">

    <path fill="#FF2A0E" opacity="1.000000" stroke="none"
          d="
M44.060226,160.892212
	C52.395645,151.071396 60.790661,141.300385 69.050842,131.416702
	C78.595169,119.996468 88.013611,108.471092 97.503494,97.005264
	C99.490784,94.604187 101.592857,92.297745 103.567139,89.886375
	C105.901596,87.035065 108.608269,85.754364 112.525322,85.890594
	C122.135681,86.224815 131.765472,85.999847 142.464813,85.999847
	C119.401527,112.582512 96.912888,138.502838 73.923698,165.000107
	C82.116898,165.000107 89.699493,164.867416 97.270187,165.108459
	C98.845581,165.158600 100.950035,166.187317 101.842377,167.449585
	C114.662064,185.583939 127.312988,203.837540 140.011200,222.057816
	C143.439423,226.976868 146.890045,231.880325 150.665192,236.895477
	C151.000000,239.041672 151.000000,241.083328 151.000000,243.562500
	C142.502060,244.000061 133.999542,244.147629 125.509819,243.883636
	C123.671333,243.826462 121.161736,242.787399 120.173004,241.360764
	C105.961998,220.856201 91.958817,200.207596 77.903366,179.595200
	C77.716812,179.321609 77.444153,179.095047 77.305550,178.802124
	C72.370148,168.371872 64.075317,164.987091 53.021271,166.932800
	C50.435162,167.387985 47.701050,167.002365 44.247963,167.281418
	C43.307308,169.360992 43.022331,171.162567 43.020042,172.964508
	C42.990021,196.584793 42.999935,220.205124 42.999825,243.825455
	C34.672913,243.883408 26.346006,243.941849 18.019087,243.998581
	C17.210278,244.004089 16.401400,243.999298 15.298079,243.999298
	C15.298079,165.007935 15.298079,86.292130 15.298079,7.161133
	C24.383856,7.161133 33.480358,7.161133 42.795776,8.004033
	C43.009850,58.241669 42.996983,107.636414 43.044552,157.031097
	C43.045792,158.318451 43.706871,159.605194 44.060226,160.892212
z"/>
    <path fill="#E81901" opacity="1.000000" stroke="none"
          d="
M44.033295,160.430939
	C43.706871,159.605194 43.045792,158.318451 43.044552,157.031097
	C42.996983,107.636414 43.009850,58.241669 43.027092,8.371937
	C43.359657,9.740945 43.957478,11.584646 43.959480,13.428996
	C44.012604,62.275841 44.004238,111.122749 44.033295,160.430939
z"/>
    <path fill="#E81901" opacity="1.000000" stroke="none"
          d="
M43.411938,243.693848
	C42.999935,220.205124 42.990021,196.584793 43.020042,172.964508
	C43.022331,171.162567 43.307308,169.360992 43.786522,167.295013
	C44.074814,190.723419 44.041142,214.416061 43.992908,238.108673
	C43.989208,239.926636 43.882748,241.744400 43.411938,243.693848
z"/>
</svg>